<svg width="65" height="73" viewBox="0 0 65 73" fill="none" xmlns="http://www.w3.org/2000/svg">
<path d="M19.4332 46.4847C18.5186 46.4847 17.6226 46.3447 16.7452 46.0647C15.8866 45.8033 15.1119 45.374 14.4212 44.7767C13.7306 44.198 13.1799 43.4327 12.7692 42.4807C12.3586 41.5287 12.1532 40.3807 12.1532 39.0367V38.9247C12.1532 38.7193 12.1999 38.6167 12.2932 38.6167C12.4239 38.6167 12.5079 38.738 12.5452 38.9807C12.7319 40.2873 13.0959 41.4353 13.6372 42.4247C14.1972 43.414 14.8786 44.1887 15.6812 44.7487C16.5026 45.3087 17.3892 45.5887 18.3412 45.5887C19.3492 45.5887 20.3106 45.3087 21.2252 44.7487C22.1399 44.1887 23.0079 43.4607 23.8292 42.5647C24.6506 41.6687 25.4159 40.7167 26.1252 39.7087C26.8532 38.7193 27.5066 37.7767 28.0852 36.8807C30.2879 33.5393 31.8092 30.6087 32.6492 28.0887C33.4892 25.55 33.8626 23.4033 33.7692 21.6487C33.4706 22.6753 33.0226 23.7953 32.4252 25.0087C31.8279 26.222 31.1466 27.4353 30.3812 28.6487C29.6159 29.8433 28.8319 30.9447 28.0292 31.9527C27.7679 32.27 27.3946 32.6993 26.9092 33.2407C26.4426 33.782 25.9106 34.3513 25.3132 34.9487C24.7159 35.546 24.0999 36.1153 23.4652 36.6567C22.8306 37.198 22.2052 37.6367 21.5892 37.9727C20.9732 38.3087 20.4226 38.4767 19.9372 38.4767C19.8812 38.4767 19.8252 38.4767 19.7692 38.4767C19.7132 38.4767 19.6572 38.4673 19.6012 38.4487C19.1532 38.3367 18.9292 37.982 18.9292 37.3847C18.9292 36.8993 19.0506 36.3113 19.2932 35.6207C19.5359 34.93 19.8532 34.174 20.2452 33.3527C20.6559 32.5313 21.0946 31.7007 21.5612 30.8607C22.0279 30.002 22.4852 29.19 22.9332 28.4247C23.1946 27.9767 23.5026 27.4447 23.8572 26.8287C24.2306 26.2127 24.5479 25.5687 24.8092 24.8967C25.0892 24.2247 25.2292 23.5993 25.2292 23.0207C25.2292 22.4233 25.0146 21.938 24.5852 21.5647C24.1559 21.1727 23.3906 20.9767 22.2892 20.9767C21.6172 20.9767 20.8892 21.042 20.1052 21.1727C19.3399 21.2847 18.5746 21.434 17.8092 21.6207C17.0626 21.8073 16.3719 21.994 15.7372 22.1807C15.1026 22.3673 14.5892 22.526 14.1972 22.6567C13.2452 22.9927 12.4239 23.3567 11.7332 23.7487C11.0612 24.122 10.7252 24.4953 10.7252 24.8687C10.7252 25.13 10.8932 25.3727 11.2292 25.5967L11.2852 25.6527C11.2852 25.6713 11.2479 25.6807 11.1732 25.6807C11.0612 25.6807 10.9772 25.662 10.9212 25.6247C10.5106 25.3447 10.3052 24.934 10.3052 24.3927C10.3052 23.982 10.4452 23.5527 10.7252 23.1047C11.0052 22.6567 11.4346 22.2647 12.0132 21.9287C12.9839 21.3687 14.0946 20.8927 15.3452 20.5007C16.6146 20.09 17.8932 19.7727 19.1812 19.5487C20.4879 19.3247 21.6732 19.2127 22.7372 19.2127C24.2866 19.2127 25.3599 19.446 25.9572 19.9127C26.5732 20.3793 26.8812 20.9953 26.8812 21.7607C26.8812 22.4327 26.7039 23.1793 26.3492 24.0007C25.9946 24.822 25.5652 25.662 25.0612 26.5207C24.5572 27.3793 24.0812 28.1913 23.6332 28.9567C23.2226 29.6847 22.7839 30.4407 22.3172 31.2247C21.8692 32.0087 21.4399 32.774 21.0292 33.5207C20.6372 34.2673 20.3199 34.9487 20.0772 35.5647C19.8346 36.1807 19.7132 36.6847 19.7132 37.0767C19.7132 37.3193 19.7692 37.5153 19.8812 37.6647C19.9932 37.814 20.1799 37.8887 20.4412 37.8887C20.8146 37.8887 21.2812 37.702 21.8412 37.3287C22.4012 36.9367 22.9892 36.442 23.6052 35.8447C24.2212 35.2473 24.8186 34.6313 25.3972 33.9967C25.9759 33.3433 26.4799 32.7553 26.9092 32.2327C27.3386 31.6913 27.6372 31.2993 27.8052 31.0567C29.1119 29.1713 30.2599 27.37 31.2492 25.6527C32.2572 23.9353 32.9759 22.358 33.4052 20.9207C33.5359 20.4913 33.6759 20.258 33.8252 20.2207C33.8999 20.1833 33.9559 20.1647 33.9932 20.1647C34.0866 20.1647 34.1612 20.2393 34.2172 20.3887C34.4039 20.8927 34.5346 21.4527 34.6092 22.0687C34.7026 22.666 34.7492 23.31 34.7492 24.0007C34.7492 25.2327 34.6186 26.5393 34.3572 27.9207C34.1146 29.302 33.7692 30.6927 33.3212 32.0927C32.8919 33.474 32.3879 34.7993 31.8092 36.0687C31.2306 37.3193 30.6052 38.43 29.9332 39.4007C29.0372 40.7073 28.0199 41.8927 26.8812 42.9567C25.7612 44.0393 24.5666 44.898 23.2972 45.5327C22.0466 46.1673 20.7586 46.4847 19.4332 46.4847Z" fill="white"/>
<path d="M42.3214 49.6213C42.2281 49.6213 42.1814 49.5186 42.1814 49.3133C42.1814 49.1266 42.2374 48.8653 42.3494 48.5293C42.5361 47.9879 42.8627 47.2599 43.3294 46.3453C43.8147 45.4306 44.3747 44.4133 45.0094 43.2933C45.6627 42.1733 46.3534 41.0159 47.0814 39.8213C47.8281 38.6266 48.5561 37.4786 49.2654 36.3773C49.9934 35.2573 50.6561 34.2493 51.2534 33.3533C51.8694 32.4573 52.3734 31.7479 52.7654 31.2253C53.1761 30.7026 53.4281 30.4413 53.5214 30.4413H53.7734C53.9414 30.4413 54.0254 30.4973 54.0254 30.6093C54.0254 30.7213 53.9227 30.9079 53.7174 31.1693C52.9334 32.1959 52.1027 33.3533 51.2254 34.6413C50.3481 35.9106 49.4707 37.2266 48.5934 38.5893C47.7347 39.9519 46.9134 41.2959 46.1294 42.6213C45.3454 43.9466 44.6454 45.1879 44.0294 46.3453C43.4134 47.5026 42.9281 48.4919 42.5734 49.3133C42.4801 49.5186 42.3961 49.6213 42.3214 49.6213ZM30.5054 53.0093C30.4121 53.0093 30.3654 52.9066 30.3654 52.7013C30.3654 52.5146 30.4214 52.2533 30.5334 51.9173C30.7201 51.3759 31.0561 50.6293 31.5414 49.6773C32.0454 48.7439 32.6427 47.6986 33.3334 46.5413C34.0241 45.3653 34.7427 44.1613 35.4894 42.9293C35.0787 42.9853 34.6681 43.0413 34.2574 43.0973C33.8654 43.1533 33.4827 43.2186 33.1094 43.2933C30.7014 43.7039 28.9374 44.2826 27.8174 45.0293C26.7161 45.7573 26.1654 46.4293 26.1654 47.0453C26.1654 47.4186 26.3427 47.7453 26.6974 48.0253C26.7347 48.0626 26.7534 48.0906 26.7534 48.1093C26.7534 48.1279 26.7161 48.1373 26.6414 48.1373C26.5294 48.1373 26.4454 48.1093 26.3894 48.0533C25.5867 47.4559 25.1854 46.7279 25.1854 45.8693C25.1854 45.2533 25.4187 44.6373 25.8854 44.0213C26.3707 43.4053 27.1174 42.8453 28.1254 42.3413C29.1521 41.8186 30.4681 41.4173 32.0734 41.1373C32.8574 40.9879 33.6507 40.8759 34.4534 40.8013C35.2747 40.7266 36.0867 40.6986 36.8894 40.7173C37.5427 39.6906 38.1774 38.7199 38.7934 37.8053C39.4094 36.8906 39.9601 36.0786 40.4454 35.3693C40.9494 34.6413 41.3601 34.0719 41.6774 33.6613C42.0134 33.2506 42.2187 33.0453 42.2934 33.0453H42.5454C42.7134 33.0453 42.7974 33.1013 42.7974 33.2133C42.7974 33.3253 42.6947 33.5119 42.4894 33.7733C41.7801 34.7253 41.0054 35.8079 40.1654 37.0213C39.3254 38.2159 38.4854 39.4573 37.6454 40.7453C38.5227 40.8013 39.3907 40.9133 40.2494 41.0813C40.5854 41.1559 40.9774 41.2586 41.4254 41.3893C41.8734 41.5199 42.3121 41.6879 42.7414 41.8933C43.1894 42.0799 43.5721 42.3226 43.8894 42.6213C44.2067 42.9199 44.3934 43.2746 44.4494 43.6853C44.4681 43.8159 44.4494 43.8813 44.3934 43.8813C44.3561 43.8626 44.3187 43.8159 44.2814 43.7413C44.2067 43.5173 43.9547 43.3399 43.5254 43.2093C43.1147 43.0786 42.6761 42.9853 42.2094 42.9293C41.7614 42.8546 41.4254 42.8079 41.2014 42.7893C40.6227 42.7333 40.0161 42.7053 39.3814 42.7053C38.3547 42.7053 37.3187 42.7613 36.2734 42.8733C35.4707 44.1426 34.7054 45.3933 33.9774 46.6253C33.2494 47.8386 32.6054 48.9679 32.0454 50.0133C31.5041 51.0586 31.0747 51.9546 30.7574 52.7013C30.6641 52.9066 30.5801 53.0093 30.5054 53.0093Z" fill="white"/>
</svg>
